<svg width="80" height="72" viewBox="0 0 80 72" fill="none" xmlns="http://www.w3.org/2000/svg">
<ellipse cx="40" cy="36" rx="40" ry="36" fill="#4C5EDD"/>
<path d="M13.269 53.4604V20.5156H69.9969V53.4604H13.269Z" fill="#C8C8C8" stroke="#FFFEFE"/>
<path d="M11.5 20.527V19.5576H71.8266V20.527H11.5Z" fill="#A0A0A0" stroke="#FFFEFE"/>
<path d="M27.0493 50.3242V25.6548H56.635V50.3242H27.0493Z" fill="#B4B4B4" stroke="#FFFEFE"/>
<path d="M25.7329 53.8651V51.3242H58.053V53.8651H25.7329Z" fill="#DCDCDC" stroke="#FFFEFE"/>
<path d="M27.0493 51.8956V25.6548H29.0876V51.8956H27.0493Z" fill="#DCDCDC" stroke="#FFFEFE"/>
<path d="M33.936 51.8956V25.6548H35.9743V51.8956H33.936Z" fill="#DCDCDC" stroke="#FFFEFE"/>
<path d="M40.8228 51.8956V25.6548H42.8611V51.8956H40.8228Z" fill="#DCDCDC" stroke="#FFFEFE"/>
<path d="M47.71 51.8956V25.6548H49.7483V51.8956H47.71Z" fill="#DCDCDC" stroke="#FFFEFE"/>
<path d="M54.5967 51.8956V25.6548H56.635V51.8956H54.5967Z" fill="#DCDCDC" stroke="#FFFEFE"/>
<path d="M42.3423 53.8651V51.3242H58.053V53.8651H42.3423Z" fill="#E6E6E6" stroke="#FFFEFE"/>
<path d="M11.5 53.865V52.8889H71.8266V53.865H11.5Z" fill="#A0A0A0" stroke="#FFFEFE"/>
<path d="M14.7407 29.4296V24.1978H16.6305V29.4296H14.7407Z" fill="#A0A0A0" stroke="#FFFEFE"/>
<path d="M18.792 29.4296V24.1978H20.675V29.4296H18.792Z" fill="#A0A0A0" stroke="#FFFEFE"/>
<path d="M22.8428 29.4296V24.1978H24.7258V29.4296H22.8428Z" fill="#A0A0A0" stroke="#FFFEFE"/>
<path d="M14.7407 39.0876V33.8557H16.6305V39.0876H14.7407Z" fill="#A0A0A0" stroke="#FFFEFE"/>
<path d="M18.792 39.0876V33.8557H20.675V39.0876H18.792Z" fill="#A0A0A0" stroke="#FFFEFE"/>
<path d="M22.8428 39.0876V33.8557H24.7258V39.0876H22.8428Z" fill="#A0A0A0" stroke="#FFFEFE"/>
<path d="M14.7407 48.7524V43.5205H16.6305V48.7524H14.7407Z" fill="#A0A0A0" stroke="#FFFEFE"/>
<path d="M18.792 48.7591V43.5205H20.675V48.7591H18.792Z" fill="#A0A0A0" stroke="#FFFEFE"/>
<path d="M22.8428 48.7591V43.5205H24.7258V48.7591H22.8428Z" fill="#A0A0A0" stroke="#FFFEFE"/>
<path d="M59.0527 29.4296V24.1978H60.9358V29.4296H59.0527Z" fill="#A0A0A0" stroke="#FFFEFE"/>
<path d="M63.104 29.4296V24.1978H64.987V29.4296H63.104Z" fill="#A0A0A0" stroke="#FFFEFE"/>
<path d="M67.1548 29.4296V24.1978H69.0446V29.4296H67.1548Z" fill="#A0A0A0" stroke="#FFFEFE"/>
<path d="M59.0527 39.0876V33.8557H60.9358V39.0876H59.0527Z" fill="#A0A0A0" stroke="#FFFEFE"/>
<path d="M63.104 39.0876V33.8557H64.987V39.0876H63.104Z" fill="#A0A0A0" stroke="#FFFEFE"/>
<path d="M67.1548 39.0876V33.8557H69.0446V39.0876H67.1548Z" fill="#A0A0A0" stroke="#FFFEFE"/>
<path d="M59.0527 48.7524V43.5205H60.9358V48.7524H59.0527Z" fill="#A0A0A0" stroke="#FFFEFE"/>
<path d="M63.104 48.7591V43.5205H64.987V48.7591H63.104Z" fill="#A0A0A0" stroke="#FFFEFE"/>
<path d="M67.1548 48.7591V43.5205H69.0446V48.7591H67.1548Z" fill="#A0A0A0" stroke="#FFFEFE"/>
<path d="M24.7944 24.6481V22.7412H58.4852V24.6481H24.7944Z" fill="#DCDCDC" stroke="#FFFEFE"/>
<path d="M23.7817 22.908V22.7412H59.498V22.908H23.7817Z" fill="#DCDCDC" stroke="#FFFEFE"/>
<path d="M41.6394 10.6003L58.4089 21.7412H41.6394H24.8637L41.6394 10.6003Z" fill="#DCDCDC" stroke="#FFFEFE"/>
<path d="M42.1396 10.9325L59.491 22.4599V22.908H58.9783H58.4783V23.408V24.6548H42.1396V10.9325Z" fill="#E6E6E6" stroke="#FFFEFE"/>
<mask id="path-35-inside-1_100_953" fill="white">
<path d="M57.0538 21.9378H26.2251L41.6394 11.6997L57.0538 21.9378ZM28.2304 21.3308H55.035L41.6327 12.4281L28.2304 21.3308Z"/>
</mask>
<path d="M57.0538 21.9378H26.2251L41.6394 11.6997L57.0538 21.9378ZM28.2304 21.3308H55.035L41.6327 12.4281L28.2304 21.3308Z" fill="#B4B4B4"/>
<path d="M57.0538 21.9378V22.9378H60.3668L57.6071 21.1048L57.0538 21.9378ZM26.2251 21.9378L25.6718 21.1048L22.9121 22.9378H26.2251V21.9378ZM41.6394 11.6997L42.1927 10.8667L41.6394 10.4992L41.0862 10.8667L41.6394 11.6997ZM28.2304 21.3308L27.6771 20.4978L24.9177 22.3308H28.2304V21.3308ZM55.035 21.3308V22.3308H58.3477L55.5883 20.4978L55.035 21.3308ZM41.6327 12.4281L42.186 11.5951L41.6327 11.2276L41.0794 11.5951L41.6327 12.4281ZM57.0538 20.9378H26.2251V22.9378H57.0538V20.9378ZM26.7784 22.7708L42.1927 12.5327L41.0862 10.8667L25.6718 21.1048L26.7784 22.7708ZM41.0862 12.5327L56.5005 22.7708L57.6071 21.1048L42.1927 10.8667L41.0862 12.5327ZM28.2304 22.3308H55.035V20.3308H28.2304V22.3308ZM55.5883 20.4978L42.186 11.5951L41.0794 13.2611L54.4817 22.1638L55.5883 20.4978ZM41.0794 11.5951L27.6771 20.4978L28.7837 22.1638L42.186 13.2611L41.0794 11.5951Z" fill="#FFFEFE" mask="url(#path-35-inside-1_100_953)"/>
<path opacity="0.2" d="M59.0531 50.8241V50.3241H58.5531H50.192L25.502 25.6479H58.778L69.997 36.8678V51.8888H59.0531V50.8241Z" fill="#B4B4B4" stroke="#FFFEFE"/>
</svg>
