<svg width="71" height="82" viewBox="0 0 71 82" fill="none" xmlns="http://www.w3.org/2000/svg">
<path d="M42.185 41.6349L41.995 38.0349L36.255 24.7549L32.735 20.2049L26.765 22.825L26.735 22.8349L16.995 27.0949L13.965 28.4249L12.075 24.1049L10.495 20.5049L10.305 20.0649L10.135 20.1349L6.62503 21.6749L5.98502 21.9549H5.97504L3.41504 23.075L4.34503 25.1949V25.2049L4.37503 25.2749H4.38504V25.2849L6.91504 31.0649L6.97504 31.215L8.33502 34.3149L9.40503 33.8449L9.29501 37.2549V37.2749L9.12503 42.6449L9.16504 42.6649C9.35504 42.7749 10.175 43.2549 11.405 43.9549C12.815 44.7549 14.765 45.8449 16.945 46.9849C18.175 47.5949 24.265 52.645 28.585 52.2449C28.865 52.535 29.185 52.8749 29.535 53.2349C29.655 53.3549 29.765 53.4749 29.885 53.5949C29.945 53.6549 30.005 53.7049 30.055 53.7649C31.415 55.1849 32.865 56.6849 32.865 56.6849L42.465 52.9349L42.755 52.8149L42.185 41.6349ZM26.445 37.1749C26.325 36.8949 26.215 36.6149 26.105 36.3349L34.695 45.0549C31.235 43.8449 28.145 41.0649 26.445 37.1749Z" fill="#EBAE73"/>
<path d="M12.0151 31.0451L25.7051 25.0451C26.6551 24.6251 27.0851 23.5251 26.6751 22.5751L17.2851 1.1251C16.8651 0.1751 15.7651 -0.254901 14.8151 0.155099L1.1251 6.1551C0.1751 6.5751 -0.254901 7.6751 0.155099 8.6251L9.54508 30.0751C9.95508 31.0251 11.0651 31.4651 12.0151 31.0451Z" fill="#FF7D69"/>
<path d="M7.37493 6.79497L9.12493 10.785C9.24493 11.055 9.56493 11.175 9.83493 11.055L12.4949 9.89497C12.7649 9.77497 12.8949 9.46497 12.7749 9.18497L11.0249 5.19497C10.9049 4.92497 10.5949 4.79497 10.3149 4.91497L7.65493 6.07497C7.38493 6.20497 7.25493 6.52497 7.37493 6.79497Z" fill="#B39259"/>
<path d="M23.0949 14.415L25.6749 20.315C19.7249 22.265 10.6649 17.135 4.66492 18.975L3.7749 16.955C9.2149 13.805 17.8649 18.005 23.0949 14.415Z" fill="#E96B57"/>
<path d="M26.6253 22.4549C21.0953 25.3649 13.0253 22.4849 7.47531 25.3549L4.67529 18.9549C10.6753 17.1149 19.7253 22.2449 25.6853 20.2949L26.6253 22.4549Z" fill="#CF4941"/>
<path d="M26.6251 22.4551L26.6751 22.5751C27.0951 23.5251 26.6551 24.6351 25.7051 25.0451L12.0151 31.0451C11.0651 31.4651 9.95507 31.0251 9.54507 30.0751L7.4751 25.3551C13.0151 22.4851 21.0951 25.3751 26.6251 22.4551Z" fill="#B6312F"/>
<path d="M7.78516 7.72502L7.92514 8.03502L11.5652 6.44502L11.4352 6.13502L10.4352 6.56502L9.81516 5.14502L9.50516 5.27502L10.1252 6.70502L9.09515 7.15502L8.46515 5.73502L8.15515 5.86502L8.78516 7.29502L7.78516 7.72502Z" fill="#3C3C3B"/>
<path d="M9.5752 9.10531L10.3352 10.8453L10.6452 10.7053L10.0252 9.27531L11.0552 8.82531L11.6852 10.2553L11.9852 10.1153L11.3652 8.69531L12.3652 8.25531L12.2252 7.94531L9.5752 9.10531Z" fill="#3C3C3B"/>
<path d="M1.015 22.9052C1.805 24.7152 3.63501 25.6552 5.09501 25.0152C6.55501 24.3752 7.10501 22.3952 6.31501 20.5852C5.52501 18.7752 3.695 17.8352 2.235 18.4752C0.774998 19.1152 0.224997 21.1052 1.015 22.9052Z" fill="#FFCF9F"/>
<path d="M5.82498 31.2051C6.46498 31.2551 8.42495 31.1751 8.42495 31.1751C10.325 31.1451 11.835 29.7551 11.815 28.0651V28.0051C11.785 26.3151 10.235 24.9651 8.33496 24.9951L5.73495 25.0251C0.534949 25.3851 1.00498 31.4351 5.82498 31.2051Z" fill="#FFCF9F"/>
<path d="M7.32499 37.2853L11.735 37.2153C13.635 37.1853 15.145 35.7753 15.125 34.0653V34.0053C15.095 32.2953 13.545 30.9353 11.645 30.9653L7.23497 31.0353C3.43497 31.2253 3.03499 36.7853 7.32499 37.2853Z" fill="#FFCF9F"/>
<path d="M9.90487 42.7953L13.4449 42.7453C14.9649 42.7253 16.1849 41.4653 16.1649 39.9453V39.8853C16.1449 38.3653 14.8849 37.1453 13.3649 37.1653L9.82489 37.2153C6.31489 37.2053 6.09487 42.5053 9.90487 42.7953Z" fill="#FFCF9F"/>
<path d="M52.4597 44.7854L34.7822 62.4629L53.3224 81.0031L70.9999 63.3256L52.4597 44.7854Z" fill="#28324E"/>
<path d="M38.9052 61.805C39.4452 61.275 40.3152 61.2749 40.8452 61.8149C41.3752 62.3549 41.3751 63.2249 40.8351 63.7549C40.2951 64.2849 39.4251 64.285 38.8951 63.745C38.3551 63.205 38.3652 62.335 38.9052 61.805Z" fill="white"/>
<path d="M41.9052 64.845C42.4452 64.315 43.3152 64.315 43.8452 64.855C44.3752 65.395 44.3751 66.265 43.8351 66.795C43.2951 67.325 42.4251 67.325 41.8951 66.785C41.3551 66.245 41.3652 65.375 41.9052 64.845Z" fill="white"/>
<path d="M44.9549 67.9251C45.4949 67.3951 46.3649 67.3951 46.8949 67.9351C47.4249 68.4751 47.425 69.3451 46.885 69.8751C46.345 70.4051 45.475 70.4051 44.945 69.8651C44.405 69.3351 44.4149 68.4651 44.9549 67.9251Z" fill="white"/>
<path d="M43.8049 40.0149C42.7349 38.8849 41.9949 38.0649 41.9949 38.0349C42.6949 31.4149 36.5649 23.9949 35.8249 23.2649L33.4949 20.9549C33.4949 20.9549 32.0449 19.2549 30.9449 17.0149C29.6949 14.4449 28.3549 11.9249 27.2249 9.2949C26.5149 7.6649 24.6549 6.8449 22.9949 7.4849L22.9349 7.5149C21.9549 7.8949 21.2749 8.7449 21.0449 9.7349C20.8849 10.4149 20.9349 11.1649 21.2449 11.8749C21.6649 12.8449 22.0949 13.8049 22.5349 14.7649C23.4249 16.6649 24.3749 18.5349 25.3749 20.3849C25.7549 21.0949 26.1449 21.7949 26.5449 22.4949C26.6049 22.6049 26.6749 22.7249 26.7349 22.8349C26.7449 22.8349 26.7449 22.8449 26.7449 22.8449C26.7649 22.8749 26.7849 22.9149 26.7949 22.9449C27.0649 23.5049 27.0549 24.1549 26.7549 24.6949C24.9449 28.0049 24.5949 32.2749 26.1049 36.3349C26.2149 36.6149 26.3249 36.8949 26.4449 37.1749C28.1449 41.0649 31.2349 43.8449 34.6949 45.0549C35.8049 45.4449 36.9449 45.6749 38.0949 45.7249C38.5149 45.7549 38.9349 45.7549 39.3549 45.7249C39.4449 45.7249 42.6649 52.8149 42.7549 52.8149L49.5349 45.7749C47.8649 44.2549 45.4449 41.7549 43.8049 40.0149Z" fill="#FFCF9F"/>
<path d="M44.7698 39.0549L28.9873 54.8374L35.6977 61.5478L51.4801 45.7653L44.7698 39.0549Z" fill="#EDEDED"/>
<path opacity="0.1" d="M1.78502 12.375L4.515 18.615C3.775 18.235 2.965 18.165 2.235 18.485C0.774998 19.125 0.224997 21.105 1.015 22.915C1.675 24.425 3.05501 25.315 4.34501 25.205V25.215L4.37501 25.285H4.38502V25.295C0.675022 26.515 1.46501 31.425 5.81501 31.215C5.93501 31.225 6.11502 31.225 6.31501 31.225C3.41501 32.185 3.41502 36.835 7.32502 37.295L9.295 37.265V37.275C6.545 37.725 6.32501 41.795 9.12501 42.645L9.16502 42.665C9.35502 42.775 10.175 43.255 11.405 43.955C12.815 44.755 14.765 45.845 16.945 46.985C18.175 47.595 24.265 52.645 28.585 52.245C28.865 52.535 29.185 52.875 29.535 53.235C29.655 53.355 29.765 53.475 29.885 53.595C29.945 53.655 30.005 53.705 30.055 53.765L28.985 54.835L35.695 61.545L34.775 62.465L53.315 81.005L62.705 71.615L1.78502 12.375Z" fill="#1D1D1B"/>
</svg>
